<svg version="1" xmlns="http://www.w3.org/2000/svg" width="682.667" height="682.667" viewBox="0 0 512.000000 512.000000"><path d="M243.1 1.1c-26.7 5.3-48.7 24.3-57.7 49.9-1.3 3.8-2.6 8.5-2.9 10.7-.4 2.1-.8 4.7-1 5.8-.2 1.1-.4 17.6-.4 36.7l-.1 34.6-8.7 5.3c-12.1 7.2-24.1 16.7-34.8 27.5l-9 9.2-18.5.5c-19.5.6-21.7.8-32 3.7-38.2 10.5-67.5 41.5-75.6 79.8-4.1 19.6-2.4 30.1 5.5 34.1 3.9 2 5.6 2.1 44.1 2.1h40l.1 2.7c.2 4.1.5 5.9 2.2 14.8 2.6 13 4.6 19 12.4 38.2.2.6-1.3 3.1-3.5 5.5-9.8 10.8-18.7 27.6-22.9 43.4-2.2 8.4-2.6 12.1-2.7 24.9-.1 8.2.2 17 .6 19.5 3.2 19.3 13.4 40 27 55.1 4.8 5.4 11 7.7 17.2 6.3 3.2-.7 4.5-1.9 50.1-48.6l22-22.5 4.1 1.4c3.7 1.2 5 2.6 10.5 11.1 38.5 59.2 38.5 59.2 48 58.8 8-.3 6.5 1.4 41.4-51.8 6.1-9.2 11.5-17 12.2-17.2.6-.3 7.5 5.9 15.1 13.7 7.7 7.8 23 23.3 33.9 34.4 18.2 18.5 20.1 20.2 24 20.8 6.1 1 10.3-.8 16-6.8 13.9-14.5 24.3-36.7 27.1-57.3 1-7.1.8-26.9-.2-31.9-1.4-6.6-1.8-8.5-1.8-9.2-.2-2.1-5-15-7.8-20.8-3-6.3-10.8-18.4-13.7-21.3-.9-.9-1-1.8-.4-2.6 1.5-1.8 8.7-19.6 11-26.9 2.6-8.6 6.1-25.9 6.1-30.3V301h40c35.1 0 40.5-.2 43.3-1.6 6.9-3.5 8.8-8.2 8.3-19.4-2.4-47.8-39.5-88.9-87.7-97.3-4.7-.9-15.4-1.6-24.3-1.6l-15.9-.2-10.1-10.2c-10.9-11.1-22.6-20.3-34.8-27.4l-7.7-4.4-.3-38.2c-.4-42.2-.6-43.2-7.3-57.5-9.3-19.6-26-33.8-48.4-40.8-5.4-1.8-25.7-2.6-32-1.3z"/></svg>